<?xml version="1.0" encoding="utf-8"?>
<!-- Generator: Adobe Illustrator 16.0.0, SVG Export Plug-In . SVG Version: 6.00 Build 0)  -->
<!DOCTYPE svg PUBLIC "-//W3C//DTD SVG 1.1//EN" "http://www.w3.org/Graphics/SVG/1.1/DTD/svg11.dtd">
<svg version="1.1" id="Layer_1" xmlns="http://www.w3.org/2000/svg" xmlns:xlink="http://www.w3.org/1999/xlink" x="0px" y="0px"
	 width="356.982px" height="151.493px" viewBox="0 0 356.982 151.493" enable-background="new 0 0 356.982 151.493"
	 xml:space="preserve">
<g>
	<g>
		<path fill="#005DAA" d="M147.706,52.43c0,0.494,0.012,1.214,0.037,2.162c0.025,0.948,0.039,1.675,0.039,2.181
			c3.046,0,6.049-0.076,9.007-0.228c0.62,0,2.2-0.133,4.741-0.398c-0.101,0.632-0.152,1.125-0.152,1.479
			c0,0.253,0.051,0.747,0.152,1.479l-3.583-0.076c-2.68-0.101-4.722-0.152-6.125-0.152c-0.468,0-1.188,0.014-2.162,0.039
			c-0.973,0.024-1.706,0.037-2.199,0.037c-0.417,0-1.088,0.014-2.01,0.038c-0.923,0.025-1.625,0.038-2.105,0.038l0.322-6.22V31.457
			c0-2.175-0.082-4.272-0.246-6.295h3.508h1.232l-0.302,7.604c-0.152,2.503-0.228,5.019-0.228,7.547
			c0,0.671,0.013,1.664,0.038,2.978c0.025,1.315,0.039,2.288,0.039,2.92v6.219H147.706z"/>
		<path fill="#005DAA" d="M194.146,25.54c6.068,3.224,9.104,8.249,9.104,15.076c0,3.64-0.804,6.871-2.409,9.689
			c-1.605,2.819-3.847,4.991-6.723,6.515c-2.876,1.523-6.153,2.285-9.832,2.285c-3.883,0-7.266-0.825-10.155-2.475
			c-2.889-1.65-5.148-4.162-6.78-7.538c-0.316-0.784-0.676-2.105-1.08-3.964c-0.152-1.251-0.228-2.496-0.228-3.735
			c0-5.411,1.864-9.785,5.594-13.123c3.59-3.21,7.831-4.816,12.723-4.816C188.229,23.455,191.491,24.15,194.146,25.54z
			 M195.246,30.054c-1.228-1.542-2.75-2.731-4.57-3.565c-1.819-0.834-3.741-1.251-5.765-1.251c-3.161,0-5.93,0.878-8.306,2.636
			c-2.023,1.479-3.486,3.492-4.39,6.039c-0.904,2.548-1.356,5.275-1.356,8.183c0,4.589,1.188,8.236,3.565,10.941
			c2.604,3.008,5.942,4.513,10.013,4.513c2.263,0,4.346-0.528,6.248-1.583c1.902-1.055,3.471-2.484,4.703-4.286
			c1.231-1.802,2.063-3.833,2.492-6.097c0.316-1.441,0.477-2.939,0.477-4.494c0-2.3-0.219-4.326-0.654-6.078
			C197.265,33.262,196.446,31.609,195.246,30.054z"/>
		<path fill="#005DAA" d="M213.963,52.43c0,0.494,0.013,1.214,0.037,2.162c0.024,0.948,0.038,1.675,0.038,2.181
			c3.046,0,6.05-0.076,9.007-0.228c0.62,0,2.2-0.133,4.741-0.398c-0.102,0.632-0.152,1.125-0.152,1.479
			c0,0.253,0.051,0.747,0.152,1.479l-3.584-0.076c-2.68-0.101-4.723-0.152-6.125-0.152c-0.469,0-1.188,0.014-2.162,0.039
			c-0.973,0.024-1.706,0.037-2.199,0.037c-0.417,0-1.088,0.014-2.01,0.038c-0.924,0.025-1.625,0.038-2.105,0.038l0.322-6.22V31.457
			c0-2.175-0.083-4.272-0.246-6.295h3.508h1.232l-0.303,7.604c-0.151,2.503-0.229,5.019-0.229,7.547
			c0,0.671,0.014,1.664,0.037,2.978c0.025,1.315,0.039,2.288,0.039,2.92L213.963,52.43L213.963,52.43z"/>
		<path fill="#005DAA" d="M260.022,29.978c-0.075-0.089-0.154-0.183-0.236-0.285c-0.082-0.101-0.186-0.189-0.313-0.266
			c-2.567-2.477-5.545-3.716-8.933-3.716c-2.935,0-5.438,0.714-7.519,2.142c-2.08,1.429-3.639,3.351-4.676,5.765
			c-1.037,2.415-1.555,5.057-1.555,7.926c0,1.58,0.284,3.654,0.854,6.22c0.543,1.82,1.371,3.4,2.483,4.741
			c1.177,1.517,2.661,2.687,4.456,3.508c1.796,0.822,3.68,1.233,5.65,1.233c3.377,0,6.688-1.196,9.938-3.584
			c0.253-0.253,0.514-0.379,0.777-0.379l-0.455,3.015c-2.77,1.871-6.423,2.807-10.96,2.807c-3.591,0-6.716-0.721-9.378-2.162
			c-2.661-1.441-4.69-3.499-6.088-6.172c-1.396-2.674-2.094-5.826-2.094-9.454c0-2.401,0.514-4.816,1.545-7.244
			c1.029-2.427,2.431-4.387,4.199-5.879c3.426-2.907,7.781-4.361,13.065-4.361c3.69,0,7.237,0.752,10.639,2.256
			c-0.38,0.999-0.721,2.27-1.024,3.813L260.022,29.978z"/>
	</g>
	<polygon fill="#005DAA" points="121.608,31.799 121.275,31.799 120.918,88.836 116.396,31.799 33.003,31.799 33.003,96.273 
		110.713,100.452 33.003,100.64 33.003,100.842 33.003,107.786 129.217,107.786 129.217,31.799 	"/>
	<g>
		<path fill="#005DAA" d="M143.629,79.986c-0.092-2.106-0.188-4.252-0.286-6.456c1.513,0.052,3.013,0.109,4.486,0.143
			c1.49,0.046,2.99,0.063,4.48,0.063c1.496,0,3.008-0.017,4.543-0.063c1.524-0.034,3.202-0.091,4.977-0.143
			c-0.091,0.514-0.142,1.01-0.142,1.501c0,0.502,0.051,0.999,0.142,1.495c-0.893-0.107-1.974-0.217-3.242-0.303
			c-1.261-0.074-2.54-0.154-3.853-0.216c-1.317-0.057-2.585-0.097-3.79-0.137c-1.207-0.029-2.214-0.04-3.019-0.04
			c-0.028,1.147-0.051,2.271-0.074,3.35c-0.023,1.066-0.035,2.117-0.035,3.18v3.23v3.063c2.203,0,4.372-0.028,6.518-0.097
			c2.146-0.059,4.251-0.194,6.361-0.411c-0.151,0.524-0.203,1.017-0.203,1.522c0,0.51,0.052,0.988,0.203,1.496
			c-0.842-0.092-1.784-0.166-2.823-0.229c-1.049-0.059-2.134-0.092-3.275-0.132c-1.113-0.034-2.272-0.058-3.447-0.058h-3.333v4.24
			c0,2.215,0.057,4.379,0.137,6.495c0.083,2.123,0.183,4.218,0.274,6.278c-0.765-0.057-1.575-0.104-2.442-0.104
			c-0.856,0-1.667,0.047-2.443,0.104c0.097-2.061,0.194-4.139,0.286-6.278c0.063-2.116,0.125-4.28,0.125-6.466v-8.573
			C143.755,84.254,143.692,82.098,143.629,79.986"/>
		<path fill="#005DAA" d="M168.543,79.986c-0.085-2.106-0.183-4.252-0.271-6.456c0.448,0.052,0.859,0.109,1.247,0.143
			c0.383,0.046,0.805,0.063,1.193,0.063c0.4,0,0.788-0.017,1.188-0.063c0.399-0.034,0.822-0.091,1.246-0.143
			c-0.105,2.204-0.185,4.349-0.276,6.456c-0.074,2.111-0.121,4.269-0.121,6.46v8.573c0,2.187,0.046,4.349,0.121,6.466
			c0.091,2.141,0.171,4.219,0.276,6.279c-0.767-0.057-1.578-0.104-2.434-0.104c-0.867,0-1.689,0.047-2.439,0.104
			c0.088-2.061,0.186-4.139,0.271-6.279c0.08-2.117,0.12-4.279,0.12-6.466v-8.573C168.663,84.254,168.623,82.098,168.543,79.986"/>
		<path fill="#005DAA" d="M196.429,94.854c-4.318-4.65-8.648-9.273-12.962-13.875c-0.058,0.947-0.103,2.188-0.147,3.738
			c-0.034,1.574-0.047,3.722-0.047,6.41c0,0.695,0,1.547,0.022,2.603c0,1.021,0.022,2.11,0.049,3.259
			c0.015,1.124,0.031,2.276,0.065,3.42c0.033,1.18,0.068,2.27,0.104,3.264c0.039,1.011,0.063,1.884,0.103,2.615
			c0.022,0.752,0.069,1.26,0.104,1.541c-0.549-0.086-1.119-0.109-1.748-0.109c-0.662,0-1.277,0.023-1.843,0.109
			c0.058-0.345,0.131-0.959,0.224-1.838c0.08-0.908,0.158-1.992,0.217-3.248c0.078-1.257,0.152-2.604,0.228-4.07
			c0.08-1.455,0.16-2.928,0.212-4.399c0.04-1.461,0.086-2.899,0.12-4.292c0.033-1.408,0.039-2.654,0.039-3.756
			c0-3.189,0-5.947-0.006-8.234c-0.009-2.307-0.033-4.025-0.091-5.148h0.799c2.025,2.191,4.201,4.555,6.495,7.066
			c2.3,2.506,4.589,5.01,6.86,7.447c2.266,2.447,4.432,4.766,6.482,6.945c2.032,2.181,3.813,4.053,5.342,5.57v-6.804
			c0-3.487-0.021-6.896-0.08-10.205c-0.046-3.321-0.148-6.442-0.318-9.371c0.65,0.148,1.232,0.246,1.695,0.246
			c0.397,0,0.93-0.097,1.58-0.246c-0.035,0.725-0.113,1.832-0.193,3.305c-0.063,1.467-0.133,3.019-0.217,4.686
			c-0.068,1.661-0.138,3.299-0.185,4.902c-0.067,1.593-0.097,2.877-0.097,3.841v3.002c0,1.125,0.018,2.317,0.022,3.539
			c0.007,1.243,0.022,2.493,0.028,3.737c0,1.25,0.021,2.408,0.033,3.494c0.012,1.084,0.023,2.026,0.023,2.823v1.64h-0.701
			C204.812,104.032,200.748,99.504,196.429,94.854"/>
		<path fill="#005DAA" d="M244.791,107.764c-0.468-0.057-0.913-0.104-1.335-0.104h-1.313h-1.326c-0.409,0-0.854,0.047-1.316,0.104
			c-0.229-0.748-0.555-1.689-0.941-2.77c-0.399-1.072-0.84-2.213-1.33-3.396c-0.474-1.192-0.977-2.386-1.473-3.591
			c-0.503-1.231-0.965-2.379-1.395-3.486c-1.065-0.033-2.162-0.053-3.234-0.063c-1.111-0.022-2.199-0.028-3.293-0.028
			c-1.021,0-2.043,0.006-3.051,0.028c-0.99,0.01-2,0.027-3.033,0.063c-1.057,2.607-2.031,5.063-2.895,7.426
			c-0.873,2.346-1.513,4.285-1.939,5.816c-0.57-0.057-1.188-0.104-1.85-0.104s-1.284,0.047-1.838,0.104
			c2.683-5.816,5.313-11.604,7.864-17.352c2.563-5.77,5.138-11.625,7.738-17.572h0.942c0.805,1.929,1.66,4.012,2.591,6.255
			c0.931,2.266,1.878,4.525,2.842,6.824c0.965,2.285,1.937,4.566,2.896,6.826c0.965,2.272,1.877,4.373,2.715,6.318
			c0.856,1.945,1.611,3.688,2.295,5.211C243.798,105.811,244.356,106.981,244.791,107.764 M222.704,92.234
			c0.852,0,1.752,0.017,2.671,0.063c0.953,0.027,1.849,0.045,2.699,0.045c0.937,0,1.872-0.018,2.794-0.022
			c0.933-0.022,1.857-0.045,2.794-0.085l-5.531-12.658L222.704,92.234z"/>
		<path fill="#005DAA" d="M265.337,94.854c-4.324-4.65-8.617-9.273-12.967-13.875c-0.028,0.947-0.079,2.188-0.114,3.738
			c-0.045,1.574-0.079,3.722-0.079,6.41c0,0.695,0.012,1.547,0.034,2.603c0.011,1.021,0.034,2.11,0.052,3.259
			c0.022,1.124,0.043,2.276,0.063,3.42c0.045,1.18,0.074,2.27,0.107,3.264c0.041,1.011,0.067,1.884,0.098,2.615
			c0.021,0.752,0.068,1.26,0.103,1.541c-0.524-0.086-1.106-0.109-1.745-0.109c-0.65,0-1.257,0.023-1.845,0.109
			c0.058-0.345,0.154-0.959,0.233-1.838c0.068-0.908,0.148-1.992,0.224-3.248c0.063-1.257,0.144-2.604,0.211-4.07
			c0.091-1.455,0.159-2.928,0.218-4.399c0.033-1.461,0.086-2.899,0.107-4.292c0.04-1.408,0.051-2.654,0.051-3.756
			c0-3.189,0-5.947-0.011-8.234c-0.007-2.307-0.046-4.025-0.08-5.148h0.799c2.021,2.191,4.183,4.555,6.483,7.066
			c2.316,2.506,4.611,5.01,6.884,7.447c2.271,2.447,4.429,4.766,6.46,6.945c2.031,2.181,3.813,4.053,5.354,5.57v-6.804
			c0-3.487-0.033-6.896-0.078-10.205c-0.053-3.321-0.16-6.442-0.32-9.371c0.662,0.148,1.229,0.246,1.689,0.246
			c0.398,0,0.924-0.097,1.58-0.246c-0.039,0.725-0.119,1.832-0.188,3.305c-0.074,1.467-0.143,3.019-0.229,4.686
			c-0.052,1.661-0.125,3.299-0.184,4.902c-0.057,1.593-0.08,2.877-0.08,3.841v3.002c0,1.125,0,2.317,0.012,3.539
			c0.012,1.243,0.012,2.493,0.029,3.737c0.005,1.25,0.021,2.408,0.039,3.494c0.012,1.084,0.012,2.026,0.012,2.823v1.64h-0.695
			C273.744,104.032,269.664,99.504,265.337,94.854"/>
		<path fill="#005DAA" d="M310.967,106.639c-0.649,0.326-1.438,0.611-2.34,0.844c-0.902,0.252-1.93,0.48-3.06,0.674
			c-1.125,0.213-2.313,0.303-3.551,0.303c-2.625,0-5.051-0.377-7.271-1.125c-2.222-0.739-4.14-1.881-5.765-3.412
			c-1.609-1.541-2.865-3.401-3.778-5.639c-0.913-2.197-1.37-4.727-1.37-7.563c0-2.825,0.457-5.338,1.37-7.579
			c0.913-2.204,2.19-4.069,3.835-5.604c1.654-1.53,3.605-2.688,5.9-3.494c2.299-0.799,4.824-1.204,7.574-1.204
			c2.197,0,4.205,0.234,6.026,0.679c1.81,0.479,3.407,1.021,4.8,1.662c-0.257,0.485-0.485,1.106-0.649,1.894
			c-0.173,0.787-0.31,1.461-0.389,1.992l-0.304,0.113c-0.33-0.41-0.804-0.855-1.397-1.363c-0.594-0.49-1.313-0.98-2.101-1.443
			c-0.812-0.469-1.7-0.855-2.688-1.169c-1.011-0.32-2.095-0.485-3.299-0.485c-1.964,0-3.771,0.325-5.451,0.958
			c-1.678,0.634-3.139,1.615-4.383,2.916c-1.244,1.343-2.214,3.004-2.922,5.029c-0.701,2.021-1.048,4.416-1.048,7.186
			c0,2.763,0.347,5.171,1.048,7.188c0.708,2.024,1.678,3.68,2.922,5.004c1.244,1.303,2.705,2.271,4.383,2.935
			c1.68,0.62,3.487,0.946,5.451,0.946c1.204,0,2.323-0.166,3.315-0.457c1.027-0.313,1.952-0.686,2.797-1.112
			c0.855-0.435,1.62-0.873,2.3-1.388c0.683-0.502,1.25-0.926,1.718-1.301l0.194,0.205l-0.457,2.963
			C312.097,106.04,311.617,106.319,310.967,106.639"/>
		<path fill="#005DAA" d="M318.74,79.907c-0.092-2.119-0.171-4.241-0.274-6.375c1.495,0.052,2.991,0.109,4.464,0.143
			c1.461,0.046,2.956,0.063,4.439,0.063c1.513,0,2.981-0.017,4.452-0.063c1.461-0.034,2.938-0.091,4.429-0.143
			c-0.104,0.514-0.137,0.999-0.137,1.501c0,0.485,0.033,0.999,0.137,1.489c-1.05-0.073-2.043-0.147-2.91-0.211
			c-0.886-0.074-1.821-0.143-2.78-0.217c-0.991-0.063-2.061-0.143-3.224-0.188c-1.176-0.057-2.569-0.074-4.189-0.074
			c-0.033,1.062-0.073,2.089-0.119,3.042c-0.063,0.963-0.086,2.064-0.086,3.311c0,1.295,0.012,2.563,0.063,3.795
			c0.023,1.238,0.043,2.163,0.043,2.809c1.461,0,2.771-0.022,3.937-0.052c1.165-0.028,2.23-0.079,3.195-0.132
			c0.959-0.063,1.843-0.085,2.659-0.137c0.812-0.057,1.587-0.113,2.317-0.188c-0.093,0.508-0.138,1.021-0.138,1.54
			c0,0.521,0.045,1.011,0.138,1.496c-0.867-0.086-1.872-0.185-3.015-0.239c-1.164-0.052-2.294-0.115-3.437-0.115
			c-1.142-0.021-2.219-0.051-3.252-0.051c-1.017-0.029-1.815-0.029-2.406-0.029c0,0.285-0.02,0.617-0.043,0.966
			c-0.051,0.342-0.063,0.788-0.063,1.323v1.953v2.989c0,1.89,0.013,3.453,0.023,4.681c0.022,1.232,0.045,2.17,0.082,2.795h3.49
			c1.256,0,2.5-0.032,3.71-0.084c1.222-0.051,2.352-0.125,3.436-0.193c1.079-0.092,2.034-0.211,2.813-0.371
			c-0.049,0.229-0.104,0.475-0.12,0.766c-0.017,0.285-0.027,0.528-0.027,0.774c0,0.537,0.051,0.946,0.147,1.285
			c-1.479-0.058-2.972-0.104-4.445-0.104h-4.521h-4.526c-1.512,0-3.008,0.047-4.537,0.104c0.104-2.119,0.184-4.229,0.274-6.358
			c0.079-2.09,0.125-4.246,0.125-6.449v-8.562C318.865,84.187,318.819,82.042,318.74,79.907"/>
	</g>
	<g display="none">
		<g display="inline">
			<path d="M146.271,118.256c-1.227,1.641-2.112,3.83-2.112,6.865c0,2.981,0.919,5.127,2.112,6.789h-1.159
				c-1.053-1.384-2.185-3.539-2.185-6.789c0.011-3.3,1.132-5.461,2.185-6.865H146.271z"/>
			<path d="M149.855,126.338l-1.176,3.545h-1.501l3.842-11.279h1.748l3.859,11.279h-1.569l-1.209-3.545H149.855z M153.558,125.208
				l-1.108-3.276c-0.247-0.718-0.426-1.384-0.583-2.046h-0.028c-0.179,0.673-0.365,1.367-0.577,2.046l-1.106,3.276H153.558z"/>
			<path d="M158.509,123.963c0-0.83-0.011-1.523-0.067-2.162h1.311l0.089,1.311h0.028c0.409-0.762,1.328-1.523,2.671-1.523
				c1.126,0,2.868,0.685,2.868,3.457v4.838h-1.473v-4.666c0-1.305-0.487-2.407-1.881-2.407c-0.958,0-1.715,0.694-1.967,1.513
				c-0.073,0.202-0.106,0.454-0.106,0.7v4.86h-1.473V123.963z"/>
			<path d="M171.908,118.604h2.565v9.141h4.481v2.139h-7.046V118.604z"/>
			<path d="M190.498,124.114c0,3.715-2.246,5.961-5.54,5.961c-3.359,0-5.326-2.52-5.326-5.754c0-3.387,2.168-5.908,5.501-5.908
				C188.604,118.413,190.498,121.01,190.498,124.114z M182.349,124.288c0,2.191,1.03,3.767,2.745,3.767
				c1.714,0,2.71-1.652,2.71-3.845c0-2.016-0.975-3.774-2.744-3.774C183.347,120.434,182.349,122.086,182.349,124.288z"/>
			<path d="M192.515,118.604h2.561v9.141h4.48v2.139h-7.041V118.604z"/>
			<path d="M209.05,129.571c-0.459,0.225-1.518,0.504-2.885,0.504c-3.907,0-5.932-2.449-5.932-5.652c0-3.864,2.75-6.01,6.179-6.01
				c1.321,0,2.317,0.279,2.771,0.504l-0.514,2.019c-0.521-0.203-1.238-0.41-2.146-0.41c-2.026,0-3.597,1.216-3.597,3.742
				c0,2.246,1.334,3.668,3.619,3.668c0.772,0,1.625-0.156,2.123-0.356L209.05,129.571z"/>
			<path d="M223.708,129.401c-0.654,0.23-1.943,0.611-3.473,0.611c-1.715,0-3.113-0.441-4.223-1.506
				c-0.971-0.93-1.566-2.441-1.566-4.207c0.009-3.365,2.326-5.82,6.113-5.82c1.305,0,2.324,0.281,2.813,0.516l-0.348,1.205
				c-0.6-0.27-1.354-0.488-2.498-0.488c-2.756,0-4.537,1.703-4.537,4.537c0,2.857,1.715,4.556,4.342,4.556
				c0.963,0,1.618-0.142,1.954-0.31v-3.373h-2.296v-1.158h3.719V129.401L223.708,129.401z"/>
			<path d="M226.212,124.299c0-0.941-0.018-1.76-0.059-2.498h1.297l0.044,1.563h0.067c0.363-1.086,1.254-1.775,2.246-1.775
				c0.166,0,0.285,0.033,0.411,0.066v1.395c-0.147-0.055-0.3-0.061-0.495-0.061c-1.041,0-1.781,0.789-1.982,1.889
				c-0.033,0.211-0.063,0.437-0.063,0.688v4.317h-1.468L226.212,124.299L226.212,124.299z"/>
			<path d="M239.202,125.784c0,2.98-2.084,4.291-4.045,4.291c-2.19,0-3.877-1.625-3.877-4.18c0-2.705,1.76-4.307,4.012-4.307
				C237.627,121.588,239.202,123.286,239.202,125.784z M232.771,125.856c0,1.77,1.008,3.109,2.467,3.109
				c1.397,0,2.451-1.322,2.451-3.148c0-1.361-0.685-3.113-2.431-3.113C233.511,122.704,232.771,124.299,232.771,125.856z"/>
			<path d="M248.181,127.676c0,0.83,0.018,1.57,0.063,2.207h-1.297l-0.088-1.322h-0.039c-0.381,0.645-1.236,1.514-2.688,1.514
				c-1.267,0-2.79-0.705-2.79-3.563v-4.711h1.479v4.48c0,1.518,0.459,2.571,1.804,2.571c0.985,0,1.681-0.694,1.942-1.351
				c0.091-0.219,0.129-0.477,0.129-0.739v-4.964h1.484V127.676L248.181,127.676z"/>
			<path d="M250.958,124.428c0-1.037-0.039-1.871-0.078-2.627h1.319l0.087,1.373h0.021c0.607-0.98,1.558-1.586,2.879-1.586
				c1.967,0,3.439,1.652,3.439,4.133c0,2.908-1.775,4.354-3.675,4.354c-1.087,0-2.028-0.482-2.521-1.271h-0.022v4.407h-1.451
				L250.958,124.428L250.958,124.428z M252.409,126.584c0,0.242,0.021,0.41,0.066,0.61c0.27,1.024,1.166,1.72,2.213,1.72
				c1.553,0,2.465-1.271,2.465-3.113c0-1.637-0.857-3.031-2.426-3.031c-0.996,0-1.927,0.717-2.218,1.814
				c-0.065,0.19-0.102,0.42-0.102,0.623L252.409,126.584L252.409,126.584z"/>
			<path d="M272.636,129.526c-0.531,0.258-1.597,0.549-2.982,0.549c-3.185,0-5.564-2.021-5.564-5.742c0-3.518,2.381-5.92,5.896-5.92
				c1.402,0,2.274,0.303,2.668,0.504l-0.358,1.183c-0.538-0.265-1.328-0.453-2.263-0.453c-2.65,0-4.415,1.681-4.415,4.647
				c0,2.763,1.597,4.549,4.347,4.549c0.896,0,1.793-0.194,2.383-0.471L272.636,129.526z"/>
			<path d="M281.899,125.784c0,2.98-2.078,4.291-4.039,4.291c-2.194,0-3.881-1.625-3.881-4.18c0-2.705,1.774-4.307,4.004-4.307
				C280.326,121.588,281.899,123.286,281.899,125.784z M275.476,125.856c0,1.77,1.02,3.109,2.459,3.109
				c1.405,0,2.474-1.322,2.474-3.148c0-1.361-0.692-3.113-2.444-3.113C276.226,122.704,275.476,124.299,275.476,125.856z"/>
			<path d="M284.09,123.963c0-0.83-0.011-1.523-0.062-2.162h1.293l0.068,1.287h0.045c0.446-0.771,1.197-1.5,2.543-1.5
				c1.107,0,1.948,0.684,2.297,1.637h0.039c0.25-0.455,0.564-0.813,0.9-1.055c0.48-0.369,1.03-0.582,1.799-0.582
				c1.069,0,2.66,0.695,2.66,3.533v4.762h-1.445v-4.598c0-1.541-0.57-2.488-1.748-2.488c-0.849,0-1.5,0.623-1.758,1.346
				c-0.057,0.189-0.111,0.459-0.111,0.734v5.006h-1.436v-4.844c0-1.295-0.576-2.242-1.701-2.242c-0.908,0-1.593,0.734-1.82,1.49
				c-0.096,0.219-0.118,0.461-0.118,0.717v4.879h-1.445V123.963z"/>
			<path d="M298.396,124.428c0-1.037-0.033-1.871-0.063-2.627h1.331l0.056,1.373h0.033c0.604-0.98,1.563-1.586,2.882-1.586
				c1.969,0,3.438,1.652,3.438,4.133c0,2.908-1.769,4.354-3.685,4.354c-1.072,0-2.008-0.482-2.49-1.271h-0.043v4.407h-1.457v-8.783
				H298.396z M299.853,126.584c0,0.242,0.045,0.41,0.067,0.61c0.272,1.024,1.153,1.72,2.206,1.72c1.568,0,2.477-1.271,2.477-3.113
				c0-1.637-0.862-3.031-2.42-3.031c-1.009,0-1.938,0.717-2.234,1.814c-0.051,0.19-0.096,0.42-0.096,0.623V126.584L299.853,126.584z
				"/>
			<path d="M313.956,127.934c0,0.713,0.021,1.406,0.135,1.949h-1.345l-0.112-1.025h-0.056c-0.448,0.65-1.327,1.217-2.477,1.217
				c-1.636,0-2.48-1.16-2.48-2.33c0-1.943,1.742-3.035,4.89-2.996v-0.18c0-0.689-0.195-1.883-1.858-1.883
				c-0.756,0-1.546,0.23-2.106,0.6l-0.347-0.969c0.672-0.443,1.651-0.729,2.678-0.729c2.486,0,3.08,1.697,3.08,3.328
				L313.956,127.934L313.956,127.934z M312.533,125.762c-1.603-0.041-3.439,0.234-3.439,1.814c0,0.946,0.65,1.399,1.391,1.399
				c1.063,0,1.735-0.662,1.955-1.353c0.071-0.149,0.095-0.317,0.095-0.465L312.533,125.762L312.533,125.762z"/>
			<path d="M316.667,123.963c0-0.83-0.011-1.523-0.067-2.162h1.312l0.085,1.311h0.027c0.402-0.762,1.336-1.523,2.678-1.523
				c1.125,0,2.862,0.685,2.862,3.457v4.838h-1.463v-4.666c0-1.305-0.492-2.407-1.882-2.407c-0.97,0-1.726,0.694-1.978,1.513
				c-0.073,0.202-0.106,0.454-0.106,0.7v4.86h-1.468V123.963L316.667,123.963z"/>
			<path d="M326.626,121.801l1.759,4.773c0.19,0.53,0.397,1.17,0.517,1.655h0.044c0.146-0.485,0.313-1.104,0.521-1.703l1.607-4.728
				h1.558l-2.218,5.759c-1.042,2.769-1.771,4.213-2.779,5.067c-0.717,0.646-1.434,0.888-1.803,0.953l-0.364-1.231
				c0.364-0.117,0.847-0.349,1.282-0.718c0.403-0.342,0.896-0.891,1.244-1.635c0.065-0.162,0.112-0.281,0.112-0.354
				c0-0.09-0.034-0.195-0.097-0.396l-2.997-7.445h1.614V121.801z"/>
			<path d="M333.415,131.911c1.188-1.646,2.104-3.813,2.104-6.844c0-2.99-0.906-5.137-2.104-6.811h1.143
				c1.064,1.389,2.195,3.545,2.195,6.832c0,3.283-1.131,5.399-2.195,6.822H333.415L333.415,131.911z"/>
		</g>
	</g>
	<polygon fill="#EE3124" points="110.713,100.452 33.003,95.777 33.003,31.799 116.136,31.799 120.918,88.836 121.535,31.799 
		121.608,31.799 121.608,25.121 25.395,25.121 25.395,101.097 33.003,101.097 33.003,101.068 	"/>
</g>
</svg>
